<svg id="Layer_1" data-name="Layer 1" xmlns="http://www.w3.org/2000/svg" viewBox="0 0 1920 417.78" width="32" height="32" class="icon-transition-all icon-rounded-sm icon-border-hairline icon-border-transparent hover:icon-grayscale-[.2] active:icon-grayscale-[.4] footer-fill-neutral-high-400 footer-w-xxl">
  <title>Logo-R7</title>
  <path fill="#FFFFFF" d="M326.84,397.35h-121.27l-91.94-144.13h-.99v144.13H15.22V22.61h145.62c74.05,0,130.21,35.29,130.21,115.3,0,51.69-28.83,96.42-82,105.86l117.79,153.57ZM112.63,190.6h9.44c31.81,0,67.59-5.96,67.59-46.72s-35.78-46.72-67.59-46.72h-9.44v93.43Z"></path>
  <path fill="#FFFFFF" d="M356.66,105.12V22.61h307.64l-215.2,374.73h-106.85l170.97-292.23h-156.55Z"></path>
  <path fill="#FFFFFF" d="M706.54,349.14c0,31.81-25.84,58.15-58.15,58.15s-58.15-26.34-58.15-58.15,25.84-58.15,58.15-58.15,58.15,25.84,58.15,58.15Z"></path>
  <path fill="#FFFFFF" d="M1003.24,148.35c-19.88-26.84-52.18-41.25-85.48-41.25-59.64,0-99.9,45.72-99.9,103.87s40.75,101.88,101.39,101.88c31.81,0,63.61-15.41,83.99-39.76v116.79c-32.3,9.94-55.66,17.39-85.98,17.39-52.18,0-101.88-19.88-140.65-55.17-41.25-37.27-60.14-85.98-60.14-141.64,0-51.19,19.38-100.39,55.17-137.17,36.78-37.77,89.96-60.63,142.64-60.63,31.31,0,60.14,6.96,88.96,18.89v116.79Z"></path>
  <path fill="#FFFFFF" d="M1436.62,203.02c0,121.27-86.97,206.75-207.25,206.75s-207.25-85.48-207.25-206.75c0-113.31,99.4-192.83,207.25-192.83s207.25,79.52,207.25,192.83ZM1123.51,203.52c0,64.61,47.71,111.82,105.86,111.82s105.86-47.21,105.86-111.82c0-51.69-47.71-98.9-105.86-98.9s-105.86,47.21-105.86,98.9Z"></path>
  <path fill="#FFFFFF" d="M1500.73,22.61h95.92l76.04,200.29,80.51-200.29h96.91l56.66,374.73h-97.41l-27.34-215.7h-.99l-89.96,215.7h-38.77l-85.98-215.7h-.99l-31.31,215.7h-96.91l63.62-374.73Z"></path>
</svg>